<svg xmlns="http://www.w3.org/2000/svg" width="40" height="32" viewBox="0 0 40 32"><defs><style>      .cls-1 {        fill: #f8636b;        fill-rule: evenodd;      }    </style></defs><path id="icon" class="cls-1" d="M836.142,1871.46a0.992,0.992,0,0,0,1,.97h8.471a2.028,2.028,0,0,0,1.837,1.14h5.106a2.023,2.023,0,0,0,1.829-1.14h8.479a0.971,0.971,0,1,0,0-1.94h-9.3a0.991,0.991,0,0,0-1,.97l-0.008.18-5.114-.01v-0.17a0.991,0.991,0,0,0-1-.97h-9.3A0.99,0.99,0,0,0,836.142,1871.46ZM870,1873.28v-1.82a0.991,0.991,0,0,0-1-.97H867.1v-17.52a1.006,1.006,0,0,0-2.009,0v18.49a1,1,0,0,0,1,.97h1.886v0.86a1.822,1.822,0,0,1-1.854,1.78H833.855a1.822,1.822,0,0,1-1.854-1.78v-0.86h1.887a0.992,0.992,0,0,0,1-.97v-18.49a1.006,1.006,0,0,0-2.01,0v17.53h-1.878a0.985,0.985,0,0,0-1,.97v1.82a3.794,3.794,0,0,0,3.855,3.71h32.289A3.8,3.8,0,0,0,870,1873.28Zm-27.829-6.52a1.36,1.36,0,0,0,1.037-.46l3.643-4.06H859.9a3.076,3.076,0,0,0,3.136-3.01v-11.21A3.078,3.078,0,0,0,859.9,1845H840.161a3.079,3.079,0,0,0-3.136,3.02v11.21a3.077,3.077,0,0,0,3.136,3.01h0.629v3.19A1.354,1.354,0,0,0,842.171,1866.76Zm-2.01-6.44a1.113,1.113,0,0,1-1.135-1.09v-11.21a1.115,1.115,0,0,1,1.135-1.1H859.9a1.115,1.115,0,0,1,1.135,1.1v11.21a1.113,1.113,0,0,1-1.135,1.09h-13.51a1.031,1.031,0,0,0-.76.33l-2.851,3.17v-2.54a0.984,0.984,0,0,0-1-.97h-1.618v0.01Zm9.868-7.48a1.056,1.056,0,1,1-1.1,1.05A1.073,1.073,0,0,1,850.029,1852.84Zm3.659,0a1.056,1.056,0,1,1-1.1,1.05A1.073,1.073,0,0,1,853.688,1852.84Zm-7.319,0a1.056,1.056,0,1,1-1.094,1.05A1.073,1.073,0,0,1,846.369,1852.84Z" transform="translate(-830 -1845)"></path></svg>