<svg xmlns="http://www.w3.org/2000/svg" width="40" height="34" viewBox="0 0 40 34"><defs><style>      .cls-1 {        fill: #f8636b;        fill-rule: evenodd;      }    </style></defs><path id="icon" class="cls-1" d="M1296.21,2188.68h-9.56a1,1,0,1,0,0,1.99h9.56A1,1,0,1,0,1296.21,2188.68Zm-17.37-.08a1.075,1.075,0,1,1-1.09,1.07A1.082,1.082,0,0,1,1278.84,2188.6Zm18.37,10.42a0.994,0.994,0,0,0-1-.99h-9.56a0.99,0.99,0,1,0,0,1.98h9.56A0.994,0.994,0,0,0,1297.21,2199.02Zm-18.37-1.07a1.075,1.075,0,1,1-1.09,1.07A1.082,1.082,0,0,1,1278.84,2197.95Zm-8.84,10.44a5.691,5.691,0,0,0,5.72,5.65h15.42a1,1,0,1,0,0-1.99h-15.42a3.685,3.685,0,1,1,0-7.37h17.16a1,1,0,1,0,0-1.99h-17.16a3.685,3.685,0,1,1,0-7.37h22.52a3.7,3.7,0,0,1,3.71,3.71,0.98,0.98,0,0,0,1.01.97,1.014,1.014,0,0,0,1.01-1.01,5.649,5.649,0,0,0-2.46-4.63,5.5,5.5,0,0,0,2.46-4.56v-0.28a5.568,5.568,0,0,0-5.6-5.52h-22.78a5.566,5.566,0,0,0-5.59,5.52v0.28a5.474,5.474,0,0,0,2.45,4.56A15.089,15.089,0,0,1,1270,2208.39Zm5.59-15.03a3.572,3.572,0,0,1-3.59-3.55v-0.28a3.57,3.57,0,0,1,3.59-3.54h22.78a3.57,3.57,0,0,1,3.59,3.54v0.28a3.572,3.572,0,0,1-3.59,3.55h-22.78Zm11.06,14.02a1,1,0,1,0,0,1.99h4.32a1,1,0,1,0,0-1.99h-4.32Zm-7.81-.08a1.07,1.07,0,1,1-1.09,1.07A1.082,1.082,0,0,1,1278.84,2207.3Zm23.57,10.26a7.592,7.592,0,0,0,4.29-1.31l-0.11.57a0.989,0.989,0,0,0,.79,1.16,0.615,0.615,0,0,0,.19.02,0.994,0.994,0,0,0,.98-0.8l0.67-3.34a1,1,0,0,0-.18-0.8,1.017,1.017,0,0,0-.74-0.38l-3.42-.17a0.991,0.991,0,1,0-.1,1.98l0.9,0.05a5.567,5.567,0,0,1-3.27,1.05,5.633,5.633,0,0,1-3.96-1.62,5.468,5.468,0,0,1-1.63-3.91,1,1,0,0,0-1.01-.98h0a0.986,0.986,0,0,0-.99.99,7.445,7.445,0,0,0,2.22,5.31A7.612,7.612,0,0,0,1302.41,2217.56Zm0-14.99a7.554,7.554,0,0,0-4,1.13l0.13-.63a1,1,0,0,0-1.97-.38l-0.67,3.34a1.041,1.041,0,0,0,.19.8,1.054,1.054,0,0,0,.74.38l3.42,0.17h0.04a0.99,0.99,0,0,0,.05-1.98l-0.85-.04a5.643,5.643,0,0,1,6.87.81,5.431,5.431,0,0,1,1.64,3.9,0.994,0.994,0,0,0,1,.99h0a1,1,0,0,0,1-1,7.422,7.422,0,0,0-2.22-5.3,7.545,7.545,0,0,0-5.37-2.19h0Z" transform="translate(-1270 -2184)"></path></svg>