<svg xmlns="http://www.w3.org/2000/svg" width="40" height="34" viewBox="0 0 40 34"><defs><style>      .cls-1 {        fill: #f8636b;        fill-rule: evenodd;      }    </style></defs><path id="icon" class="cls-1" d="M855.71,2188.61h-9.379a1,1,0,1,0,0,2h9.379A1,1,0,1,0,855.71,2188.61Zm-17.036-.07a1.06,1.06,0,1,1-1.066,1.06A1.067,1.067,0,0,1,838.674,2188.54Zm7.657,9.27a1,1,0,1,0,0,2h9.379a1,1,0,1,0,0-2h-9.379Zm-7.657-.06a1.055,1.055,0,1,1-1.066,1.06A1.061,1.061,0,0,1,838.674,2197.75Zm14.782,5.66a1.006,1.006,0,0,0-1.009-1H835.616a3.605,3.605,0,1,1,0-7.21h22.1a3.615,3.615,0,0,1,3.623,3.62,0.989,0.989,0,0,0,1.009.98,1.022,1.022,0,0,0,1.008-1.02,5.528,5.528,0,0,1,0-9.14v-0.08a5.589,5.589,0,0,0-5.608-5.56H835.608a5.589,5.589,0,0,0-5.608,5.56v0.08a5.528,5.528,0,0,0,2.427,4.57A15.111,15.111,0,0,1,830,2208.03a5.61,5.61,0,0,0,5.632,5.58h15.134a1,1,0,1,0,0-2h-15.15a3.605,3.605,0,1,1,0-7.21h16.831A1,1,0,0,0,853.456,2203.41Zm-17.865-10.2a3.588,3.588,0,0,1-3.6-3.57v-0.08a3.588,3.588,0,0,1,3.6-3.57h22.136a3.588,3.588,0,0,1,3.6,3.57v0.08a3.588,3.588,0,0,1-3.6,3.57H835.591Zm10.74,13.81a1,1,0,1,0,0,2h4.247a1,1,0,1,0,0-2h-4.247Zm-7.657-.06a1.055,1.055,0,1,1-1.066,1.05A1.058,1.058,0,0,1,838.674,2206.96ZM861.613,2218a8.315,8.315,0,1,0-8.387-8.31A8.36,8.36,0,0,0,861.613,2218Zm0-14.64a6.32,6.32,0,1,1-6.378,6.32A6.353,6.353,0,0,1,861.613,2203.36Zm0,7.32H865.3a1,1,0,1,0,0-2h-2.681v-2.67a1.008,1.008,0,0,0-2.016,0v3.66A1.018,1.018,0,0,0,861.613,2210.68Z" transform="translate(-830 -2184)"></path></svg>