<svg xmlns="http://www.w3.org/2000/svg" width="30" height="36" viewBox="0 0 30 36"><defs><style>      .cls-1 {        fill: #f8636b;        fill-rule: evenodd;      }    </style></defs><path id="icon" class="cls-1" d="M418.124,1847.05h-8.419a0.905,0.905,0,1,0,0,1.81h8.419A0.905,0.905,0,1,0,418.124,1847.05Zm-15.3-.02a0.93,0.93,0,1,1-.953.93A0.944,0.944,0,0,1,402.829,1847.03Zm15.3,8.14h-8.419a0.905,0.905,0,1,0,0,1.81h8.419A0.905,0.905,0,1,0,418.124,1855.17Zm-15.3-.02a0.925,0.925,0,1,1-.953.92A0.936,0.936,0,0,1,402.829,1855.15ZM395,1863.96v0.45a4.805,4.805,0,0,0,4.864,4.73h20.272a4.807,4.807,0,0,0,4.864-4.73v-0.45a4.65,4.65,0,0,1,0-7.67v-0.44a4.65,4.65,0,0,1,0-7.67v-0.45a4.805,4.805,0,0,0-4.864-4.73H399.864a4.807,4.807,0,0,0-4.864,4.73v0.45a4.65,4.65,0,0,1,0,7.67v0.44A4.65,4.65,0,0,1,395,1863.96Zm1.853-15.78v-0.45a2.974,2.974,0,0,1,3.011-2.93h20.272a2.976,2.976,0,0,1,3.011,2.93v0.45a2.974,2.974,0,0,1-3.011,2.93H399.864A2.969,2.969,0,0,1,396.853,1848.18Zm0,8.11v-0.44a2.974,2.974,0,0,1,3.011-2.93h20.272a2.969,2.969,0,0,1,3.011,2.93v0.44a2.974,2.974,0,0,1-3.011,2.93H399.864A2.963,2.963,0,0,1,396.853,1856.29Zm0,7.67a2.974,2.974,0,0,1,3.011-2.93h20.272a2.976,2.976,0,0,1,3.011,2.93v0.45a2.974,2.974,0,0,1-3.011,2.93H399.864a2.976,2.976,0,0,1-3.011-2.93v-0.45Zm12.852,1.13h8.419a0.905,0.905,0,1,0,0-1.81h-8.419A0.905,0.905,0,1,0,409.705,1865.09Zm-6.876-1.83a0.93,0.93,0,1,1-.953.93A0.944,0.944,0,0,1,402.829,1863.26Zm7.171,7.41a0.922,0.922,0,0,0-.93.91v1.87a2.871,2.871,0,0,0-1.846,1.8h-9.266a0.905,0.905,0,1,0,0,1.81h9.266a2.956,2.956,0,0,0,5.552,0h9.266a0.905,0.905,0,1,0,0-1.81h-9.266a2.871,2.871,0,0,0-1.846-1.8v-1.87A0.926,0.926,0,0,0,410,1870.67Zm0,6.52a1.045,1.045,0,1,1,1.074-1.04A1.062,1.062,0,0,1,410,1877.19Z" transform="translate(-395 -1843)"></path></svg>