<svg xmlns="http://www.w3.org/2000/svg" width="36" height="36" viewBox="0 0 36 36"><defs><style>      .cls-1 {        fill: #f8636b;        fill-rule: evenodd;      }    </style></defs><path id="icon" class="cls-1" d="M1272,1869.81c0,3.46,5.99,6.07,13.95,6.07,0.75,0,1.51-.02,2.25-0.07a0.913,0.913,0,1,0-.13-1.82c-0.7.05-1.41,0.08-2.12,0.08-7.1,0-12.05-2.25-12.05-4.26v-3.77c2.37,1.78,6.78,2.93,12.05,2.93q0.72,0,1.44-.03a0.932,0.932,0,0,0,.9-0.95,0.918,0.918,0,0,0-.99-0.86c-0.45.02-.9,0.02-1.35,0.02-7.1,0-12.05-2.24-12.05-4.25v-3.77c2.37,1.78,6.78,2.93,12.05,2.93,7.95,0,13.94-2.61,13.94-6.07v-6.92c0-3.46-5.99-6.07-13.94-6.07s-13.95,2.61-13.95,6.07v20.74h0Zm13.95-9.57c-7.1,0-12.05-2.25-12.05-4.26v-3.77c2.37,1.78,6.78,2.93,12.05,2.93s9.67-1.15,12.05-2.93v3.77C1298.01,1858,1293.06,1860.24,1285.95,1860.24Zm0-15.44c7.1,0,12.05,2.25,12.05,4.26s-4.95,4.26-12.05,4.26-12.05-2.24-12.05-4.25S1278.85,1844.8,1285.95,1844.8Zm3.95,25.55a9.059,9.059,0,1,0,9.05-8.65A8.867,8.867,0,0,0,1289.9,1870.35Zm16.2,0a7.162,7.162,0,1,1-7.15-6.84A7.011,7.011,0,0,1,1306.1,1870.35Zm-9.19-.36a0.966,0.966,0,0,0-1.34,0,0.877,0.877,0,0,0,0,1.28l1.6,1.53a0.966,0.966,0,0,0,1.34,0l3.82-3.63a0.877,0.877,0,0,0,0-1.28,0.966,0.966,0,0,0-1.34,0l-3.15,2.99Z" transform="translate(-1272 -1843)"></path></svg>