<svg xmlns="http://www.w3.org/2000/svg" width="36" height="34.97" viewBox="0 0 36 34.97"><defs><style>      .cls-1 {        fill: #f8636b;        fill-rule: evenodd;      }    </style></defs><path id="icon" class="cls-1" d="M407.227,2218.47a0.9,0.9,0,1,0,0-1.8,13.346,13.346,0,0,1-13.42-13.25v-12.49l13.42-5.53,13.421,5.53v5.21a0.907,0.907,0,0,0,1.814,0v-5.8a0.883,0.883,0,0,0-.553-0.82l-14.335-5.91a0.923,0.923,0,0,0-.693,0l-14.328,5.9a0.893,0.893,0,0,0-.553.82v13.09A15.16,15.16,0,0,0,407.227,2218.47Zm9.933-15.28a4.655,4.655,0,1,0,4.712,4.66A4.693,4.693,0,0,0,417.16,2203.19Zm0,7.52a2.87,2.87,0,1,1,2.9-2.87A2.894,2.894,0,0,1,417.16,2210.71Zm4.284-10.52a8.747,8.747,0,0,0-1.828-.75v-0.76a1.551,1.551,0,0,0-1.556-1.54h-1.792a1.546,1.546,0,0,0-1.556,1.54v0.76a8.777,8.777,0,0,0-1.829.75l-0.546-.54a1.566,1.566,0,0,0-2.2,0l-1.276,1.25a1.516,1.516,0,0,0-.457,1.08,1.489,1.489,0,0,0,.457,1.09l0.546,0.54a8.6,8.6,0,0,0-.759,1.8h-0.775a1.552,1.552,0,0,0-1.556,1.54v1.76a1.545,1.545,0,0,0,1.556,1.54h0.775a8.678,8.678,0,0,0,.759,1.81l-0.546.54a1.526,1.526,0,0,0,0,2.17l1.261,1.25a1.567,1.567,0,0,0,2.2,0l0.545-.54a8.777,8.777,0,0,0,1.829.75v0.76a1.545,1.545,0,0,0,1.556,1.54h1.785a1.547,1.547,0,0,0,1.556-1.54v-0.76a8.747,8.747,0,0,0,1.828-.75l0.546,0.54a1.56,1.56,0,0,0,1.1.45,1.544,1.544,0,0,0,1.1-.45l1.261-1.25a1.506,1.506,0,0,0,.458-1.09,1.484,1.484,0,0,0-.458-1.08l-0.545-.54a8.678,8.678,0,0,0,.759-1.81h0.8a1.546,1.546,0,0,0,1.556-1.54v-1.76a1.551,1.551,0,0,0-1.556-1.54H425.67a8.6,8.6,0,0,0-.76-1.8l0.546-.54a1.528,1.528,0,0,0,0-2.18l-1.261-1.24a1.56,1.56,0,0,0-1.1-.45,1.577,1.577,0,0,0-1.106.45Zm1.652,0.9,0.915,0.9-0.878.87a0.887,0.887,0,0,0-.111,1.13,6.908,6.908,0,0,1,1.055,2.51,0.909,0.909,0,0,0,.885.72H426.2v1.28h-1.239a0.889,0.889,0,0,0-.885.72,6.743,6.743,0,0,1-1.055,2.51,0.888,0.888,0,0,0,.111,1.13l0.878,0.86-0.915.91-0.877-.87a0.911,0.911,0,0,0-1.143-.11,7.1,7.1,0,0,1-2.544,1.04,0.9,0.9,0,0,0-.73.88v1.22h-1.291v-1.22a0.892,0.892,0,0,0-.73-0.88,6.75,6.75,0,0,1-2.544-1.04,0.912,0.912,0,0,0-1.143.11l-0.877.87-0.915-.91,0.878-.86a0.885,0.885,0,0,0,.11-1.13,7,7,0,0,1-1.054-2.51,0.9,0.9,0,0,0-.885-0.72h-1.239v-1.28h1.239a0.9,0.9,0,0,0,.885-0.72,6.689,6.689,0,0,1,1.054-2.51,0.885,0.885,0,0,0-.11-1.13l-0.863-.87,0.914-.9,0.878,0.87a0.923,0.923,0,0,0,1.143.1,7.276,7.276,0,0,1,2.544-1.04,0.9,0.9,0,0,0,.73-0.87v-1.22h1.29v1.22a0.89,0.89,0,0,0,.73.87,7.281,7.281,0,0,1,2.545,1.04,0.922,0.922,0,0,0,1.142-.1Z" transform="translate(-392 -2183.56)"></path></svg>